<?xml version="1.0" standalone="no"?>
<!DOCTYPE svg PUBLIC "-//W3C//DTD SVG 20010904//EN"
 "http://www.w3.org/TR/2001/REC-SVG-20010904/DTD/svg10.dtd">
<svg version="1.0" xmlns="http://www.w3.org/2000/svg"
 width="256.000000pt" height="245.000000pt" viewBox="0 0 256.000000 245.000000"
 preserveAspectRatio="xMidYMid meet">

<g transform="translate(0.000000,245.000000) scale(0.100000,-0.100000)"
fill="#000000" stroke="none">
<path d="M1890 2083 c-22 -8 -316 -180 -377 -220 -60 -40 -93 -86 -93 -132 0
-66 40 -111 162 -182 l70 -41 37 18 c20 11 64 47 98 81 123 123 212 383 157
461 -15 22 -26 25 -54 15z"/>
<path d="M570 1745 c-58 -36 -113 -68 -122 -71 -10 -4 -18 -10 -18 -14 0 -21
180 -142 385 -260 127 -72 246 -144 265 -159 52 -41 80 -88 79 -130 l-2 -36
-6 40 c-12 72 -52 111 -184 181 l-55 28 -38 -19 c-95 -50 -202 -203 -238 -342
l-14 -53 42 -75 43 -74 203 120 c329 196 328 195 322 506 -2 110 -4 121 -20
117 -11 -3 -34 11 -62 38 -30 28 -119 82 -257 156 -116 61 -213 112 -215 112
-2 0 -50 -30 -108 -65z"/>
<path d="M1340 1308 c0 -95 4 -128 21 -173 38 -102 64 -120 648 -447 293 -165
535 -297 538 -294 6 6 -22 138 -48 221 l-19 61 -496 279 c-524 296 -573 329
-619 420 l-24 50 -1 -117z"/>
<path d="M677 646 c-80 -30 -85 -65 -6 -47 103 24 159 4 159 -58 0 -28 0 -28
-42 -20 -133 25 -242 -62 -208 -166 26 -78 103 -108 196 -76 53 17 59 18 70 4
6 -10 18 -14 28 -10 14 5 16 25 16 139 0 205 -17 239 -118 245 -32 2 -73 -3
-95 -11z m136 -182 c13 -4 17 -16 17 -54 0 -41 -4 -50 -27 -66 -16 -10 -51
-20 -79 -22 -45 -4 -53 -1 -68 19 -23 34 -20 81 7 106 32 31 81 36 150 17z"/>
<path d="M1052 630 c-39 -24 -42 -24 -42 -4 0 10 -7 14 -22 12 -23 -3 -23 -5
-26 -180 -2 -170 -2 -178 18 -188 35 -19 43 -3 36 74 -9 101 7 182 41 218 23
24 35 29 73 28 67 -3 70 -2 70 20 0 42 -91 55 -148 20z"/>
<path d="M1361 630 c-41 -19 -45 -19 -56 -3 -7 9 -19 14 -29 10 -14 -6 -16
-28 -16 -180 0 -145 3 -177 15 -187 28 -23 34 2 37 134 3 128 3 129 31 150 20
15 47 21 97 24 66 4 71 3 100 -26 l30 -30 0 -126 c0 -71 4 -127 10 -131 5 -3
19 -1 30 5 18 10 20 21 20 133 0 107 -3 128 -22 167 -15 29 -35 51 -58 62 -47
24 -133 23 -189 -2z"/>
<path d="M1831 630 c-41 -19 -45 -19 -56 -3 -7 9 -19 14 -29 10 -14 -6 -16
-28 -16 -180 0 -145 3 -177 15 -187 28 -23 34 2 37 134 3 128 3 129 31 150 20
15 47 21 96 24 61 4 70 2 97 -21 29 -25 29 -26 32 -154 2 -70 7 -132 12 -136
4 -5 18 -4 30 3 21 11 22 16 18 143 -3 150 -16 185 -78 218 -47 25 -132 25
-189 -1z"/>
<path d="M1719 213 c-13 -16 -12 -17 4 -4 16 13 21 21 13 21 -2 0 -10 -8 -17
-17z"/>
<path d="M2070 226 c0 -2 8 -10 18 -17 15 -13 16 -12 3 4 -13 16 -21 21 -21
13z"/>
<path d="M1610 165 c0 -32 2 -56 4 -54 8 7 10 98 3 105 -4 4 -7 -19 -7 -51z"/>
<path d="M1809 172 c5 -34 6 -35 9 -8 2 16 0 32 -5 37 -5 5 -7 -7 -4 -29z"/>
<path d="M1702 170 c0 -14 2 -19 5 -12 2 6 2 18 0 25 -3 6 -5 1 -5 -13z"/>
<path d="M2102 170 c0 -14 2 -19 5 -12 2 6 2 18 0 25 -3 6 -5 1 -5 -13z"/>
<path d="M1480 150 c0 -5 5 -10 11 -10 5 0 7 5 4 10 -3 6 -8 10 -11 10 -2 0
-4 -4 -4 -10z"/>
<path d="M1581 54 c0 -11 3 -14 6 -6 3 7 2 16 -1 19 -3 4 -6 -2 -5 -13z"/>
</g>
</svg>
